<svg width="200" height="36" viewBox="0 0 133 24" fill="none" xmlns="http://www.w3.org/2000/svg">
<path d="M8.45837 18.5258C7.2694 18.5258 6.16039 18.2968 5.13134 17.8388C4.10925 17.3738 3.2123 16.7292 2.44052 15.9049C1.67568 15.0806 1.07772 14.1224 0.646633 13.0304C0.215544 11.9313 0 10.7477 0 9.47952C0 8.2959 0.194685 7.1616 0.584055 6.07662C0.973425 4.99163 1.5401 4.02642 2.28407 3.18098C3.02805 2.33553 3.93194 1.66623 4.99576 1.17305C6.06653 0.679877 7.27635 0.433289 8.62524 0.433289C9.47351 0.433289 10.287 0.53897 11.0658 0.75033C11.8515 0.954646 12.5815 1.24703 13.256 1.62748C13.9304 2.00793 14.5284 2.45883 15.0499 2.98019L13.9965 4.6288C13.3568 3.93131 12.5607 3.37825 11.6081 2.96962C10.6625 2.55394 9.6682 2.3461 8.62524 2.3461C7.61705 2.3461 6.72011 2.5328 5.93442 2.90621C5.14872 3.27961 4.48471 3.79392 3.94237 4.44914C3.40004 5.10436 2.98633 5.85469 2.70126 6.70013C2.42313 7.54557 2.28407 8.44386 2.28407 9.39498C2.28407 10.4236 2.44052 11.3747 2.7534 12.2483C3.07324 13.1149 3.51824 13.8723 4.08839 14.5205C4.65854 15.1686 5.32255 15.6724 6.08043 16.0317C6.83831 16.384 7.6553 16.5601 8.53138 16.5601C9.24059 16.5601 9.93242 16.4403 10.6069 16.2008C11.2813 15.9613 11.8862 15.6196 12.4216 15.1757C12.9639 14.7248 13.3916 14.1893 13.7044 13.5694C14.0243 12.9494 14.1842 12.2589 14.1842 11.498V10.9908H8.38536V9.2893H16.3535V11.1704C16.3535 12.354 16.1276 13.4038 15.6756 14.3197C15.2237 15.2285 14.6153 15.9965 13.8505 16.6235C13.0926 17.2435 12.2443 17.7155 11.3056 18.0396C10.3739 18.3637 9.42484 18.5258 8.45837 18.5258Z" fill="#212529"/>
<path d="M19.9249 18.1876V7.36592H21.9482V18.1876H19.9249ZM20.9365 5.17834C20.7071 5.17834 20.495 5.12197 20.3003 5.00925C20.1126 4.88948 19.9596 4.73096 19.8414 4.53369C19.7302 4.33642 19.6745 4.12153 19.6745 3.88904C19.6745 3.64949 19.7302 3.43461 19.8414 3.24439C19.9596 3.05416 20.1126 2.90269 20.3003 2.78996C20.495 2.67019 20.7071 2.6103 20.9365 2.6103C21.1729 2.6103 21.385 2.67019 21.5727 2.78996C21.7605 2.90269 21.9099 3.05416 22.0212 3.24439C22.1394 3.43461 22.1985 3.64949 22.1985 3.88904C22.1985 4.12153 22.1394 4.33642 22.0212 4.53369C21.9099 4.73096 21.7605 4.88948 21.5727 5.00925C21.385 5.12197 21.1729 5.17834 20.9365 5.17834Z" fill="#212529"/>
<path d="M31.069 24C29.6923 24 28.5311 23.7323 27.5855 23.1968C26.6399 22.6614 25.9411 21.8793 25.4892 20.8507L27.1683 20.0476C27.4882 20.7169 27.9992 21.2488 28.7015 21.6433C29.4037 22.0449 30.1929 22.2457 31.069 22.2457C31.8199 22.2457 32.4874 22.0942 33.0715 21.7913C33.6625 21.4883 34.1249 21.055 34.4586 20.4914C34.7993 19.9278 34.9697 19.255 34.9697 18.4729V16.1585C34.5177 16.8983 33.9232 17.4795 33.1862 17.9022C32.4492 18.3179 31.6357 18.5258 30.7457 18.5258C29.7584 18.5258 28.8649 18.2792 28.0653 17.786C27.2657 17.2928 26.6295 16.6129 26.1567 15.7464C25.6839 14.8798 25.4475 13.8899 25.4475 12.7768C25.4475 11.6706 25.6804 10.6878 26.1462 9.82827C26.6121 8.96169 27.2448 8.27829 28.0444 7.77807C28.851 7.27785 29.7653 7.02774 30.7874 7.02774C31.6774 7.02774 32.4909 7.23206 33.2279 7.64069C33.9649 8.04932 34.5455 8.61647 34.9697 9.34214V7.36592H36.993V18.4835C36.993 19.6389 36.7601 20.6288 36.2942 21.4531C35.8353 22.2774 35.1643 22.908 34.2813 23.3448C33.3983 23.7816 32.3275 24 31.069 24ZM31.288 16.7609C32.0181 16.7609 32.6647 16.5918 33.2279 16.2536C33.7981 15.9084 34.2431 15.4364 34.5629 14.8375C34.8827 14.2387 35.0427 13.5553 35.0427 12.7873C35.0427 12.0123 34.8793 11.3254 34.5525 10.7266C34.2326 10.1207 33.7911 9.64861 33.2279 9.31044C32.6647 8.96521 32.0216 8.7926 31.2984 8.7926C30.5753 8.7926 29.9322 8.96521 29.369 9.31044C28.8058 9.64861 28.3608 10.1207 28.034 10.7266C27.7142 11.3254 27.5542 12.0123 27.5542 12.7873C27.5542 13.5553 27.7142 14.2387 28.034 14.8375C28.3538 15.4364 28.7954 15.9084 29.3586 16.2536C29.9217 16.5918 30.5649 16.7609 31.288 16.7609Z" fill="#212529"/>
<path d="M45.7893 18.5258C44.7951 18.5258 43.8946 18.2792 43.0881 17.786C42.2885 17.2858 41.6523 16.6024 41.1795 15.7358C40.7136 14.8692 40.4807 13.8793 40.4807 12.7662C40.4807 11.6671 40.7101 10.6878 41.169 9.82827C41.6279 8.96169 42.2572 8.27829 43.0568 7.77807C43.8564 7.27785 44.7672 7.02774 45.7893 7.02774C46.6932 7.02774 47.5172 7.23206 48.2611 7.64069C49.0121 8.04932 49.5927 8.61647 50.0029 9.34214V7.36592H52.0262V18.1876H50.0029V16.1585C49.537 16.9053 48.9391 17.4866 48.209 17.9022C47.4789 18.3179 46.6724 18.5258 45.7893 18.5258ZM46.3317 16.7609C47.0617 16.7609 47.7049 16.5918 48.2611 16.2536C48.8243 15.9084 49.2659 15.4364 49.5857 14.8375C49.9055 14.2387 50.0655 13.5517 50.0655 12.7768C50.0655 12.0018 49.9055 11.3148 49.5857 10.716C49.2659 10.1171 48.8243 9.64861 48.2611 9.31044C47.7049 8.96521 47.0617 8.7926 46.3317 8.7926C45.6086 8.7926 44.9654 8.96521 44.4022 9.31044C43.839 9.64861 43.394 10.1171 43.0672 10.716C42.7474 11.3148 42.5875 12.0018 42.5875 12.7768C42.5875 13.5447 42.7474 14.2316 43.0672 14.8375C43.394 15.4364 43.839 15.9084 44.4022 16.2536C44.9654 16.5918 45.6086 16.7609 46.3317 16.7609Z" fill="#212529"/>
<path d="M61.1772 18.5258C60.315 18.5258 59.5467 18.406 58.8722 18.1664C58.1978 17.9199 57.6172 17.6204 57.1305 17.2682C56.6438 16.9159 56.244 16.5707 55.9311 16.2325C55.6182 15.8873 55.3888 15.616 55.2428 15.4188L56.4004 13.749C56.5604 13.9463 56.7759 14.1999 57.0471 14.5099C57.3182 14.8199 57.652 15.1299 58.0483 15.4399C58.4446 15.7499 58.907 16.0106 59.4354 16.2219C59.9639 16.4333 60.5618 16.539 61.2293 16.539C61.862 16.539 62.4357 16.4262 62.9502 16.2008C63.4647 15.9753 63.875 15.6407 64.1809 15.1968C64.4938 14.753 64.6502 14.2034 64.6502 13.5482C64.6502 12.9916 64.539 12.5196 64.3165 12.1321C64.094 11.7376 63.7846 11.3994 63.3882 11.1176C62.9919 10.8358 62.5295 10.5786 62.0011 10.3461C61.4727 10.1066 60.9025 9.86702 60.2907 9.62748C59.8596 9.45134 59.4215 9.24703 58.9765 9.01453C58.5315 8.77499 58.1213 8.48613 57.7458 8.14795C57.3704 7.80273 57.0679 7.3941 56.8385 6.92206C56.609 6.45002 56.4943 5.89344 56.4943 5.25231C56.4943 4.60414 56.616 3.99119 56.8593 3.41347C57.1027 2.83576 57.4469 2.32497 57.8919 1.88111C58.3369 1.43021 58.8653 1.07794 59.4772 0.824306C60.096 0.563628 60.7809 0.433289 61.5318 0.433289C62.1993 0.433289 62.8285 0.53897 63.4195 0.75033C64.0175 0.96169 64.5494 1.23294 65.0152 1.56407C65.4811 1.88815 65.8531 2.22985 66.1312 2.58917L65.1404 4.1638C64.911 3.86085 64.6189 3.57552 64.2643 3.30779C63.9097 3.03303 63.503 2.8111 63.0441 2.64201C62.5852 2.47292 62.0915 2.38837 61.5631 2.38837C60.9164 2.38837 60.3671 2.52576 59.9152 2.80053C59.4702 3.06825 59.1295 3.417 58.8931 3.84676C58.6567 4.27653 58.5385 4.73448 58.5385 5.22061C58.5385 5.65742 58.6254 6.0273 58.7992 6.33025C58.98 6.6332 59.2199 6.89036 59.5189 7.10172C59.8179 7.31308 60.1551 7.49978 60.5305 7.66182C60.906 7.82387 61.2919 7.97886 61.6882 8.12682C62.3974 8.40863 63.0684 8.70101 63.7011 9.00396C64.3339 9.29987 64.8901 9.64861 65.3699 10.0502C65.8496 10.4447 66.2251 10.9203 66.4962 11.4769C66.7744 12.0335 66.9134 12.7063 66.9134 13.4954C66.9134 14.5592 66.6631 15.4681 66.1625 16.2219C65.6688 16.9687 64.9909 17.5394 64.1287 17.9339C63.2666 18.3285 62.2827 18.5258 61.1772 18.5258Z" fill="#212529"/>
<path d="M70.5349 23.683V7.36592H72.5583V9.33157C72.9894 8.6059 73.5699 8.04227 74.3 7.64069C75.037 7.23206 75.8471 7.02774 76.7301 7.02774C77.7591 7.02774 78.6735 7.27785 79.4731 7.77807C80.2796 8.27829 80.9158 8.96169 81.3817 9.82827C81.8475 10.6878 82.0805 11.6706 82.0805 12.7768C82.0805 13.8688 81.8475 14.8516 81.3817 15.7252C80.9228 16.5918 80.2935 17.2752 79.4939 17.7754C78.6943 18.2756 77.7869 18.5258 76.7718 18.5258C75.8957 18.5258 75.0892 18.3179 74.3521 17.9022C73.6151 17.4866 73.0172 16.9053 72.5583 16.1585V23.683H70.5349ZM76.2399 16.7609C76.963 16.7609 77.6062 16.5918 78.1694 16.2536C78.7326 15.9084 79.1741 15.4364 79.4939 14.8375C79.8138 14.2387 79.9737 13.5553 79.9737 12.7873C79.9737 12.0123 79.8103 11.3254 79.4835 10.7266C79.1637 10.1207 78.7221 9.64861 78.1589 9.31044C77.6027 8.96521 76.963 8.7926 76.2399 8.7926C75.5168 8.7926 74.8701 8.96521 74.3 9.31044C73.7368 9.64861 73.2918 10.1171 72.965 10.716C72.6452 11.3148 72.4853 12.0018 72.4853 12.7768C72.4853 13.5517 72.6452 14.2387 72.965 14.8375C73.2918 15.4364 73.7368 15.9084 74.3 16.2536C74.8701 16.5918 75.5168 16.7609 76.2399 16.7609Z" fill="#212529"/>
<path d="M85.5682 18.1876V0H87.5915V8.7609C87.9183 8.26772 88.3876 7.85557 88.9995 7.52444C89.6114 7.19331 90.3379 7.02774 91.1793 7.02774C92.0067 7.02774 92.7228 7.20388 93.3278 7.55614C93.9327 7.90137 94.3985 8.40159 94.7253 9.0568C95.0591 9.71202 95.2259 10.4941 95.2259 11.4029V18.1876H93.2026V11.8151C93.2026 10.8005 92.9627 10.022 92.483 9.47952C92.0032 8.92999 91.3287 8.65522 90.4596 8.65522C89.8617 8.65522 89.3471 8.77851 88.916 9.0251C88.4919 9.27169 88.1651 9.5993 87.9357 10.0079C87.7062 10.4095 87.5915 10.8498 87.5915 11.3289V18.1876H85.5682Z" fill="#212529"/>
<path d="M104.335 18.5258C103.216 18.5258 102.211 18.2756 101.321 17.7754C100.431 17.2752 99.7288 16.5953 99.2143 15.7358C98.6997 14.8692 98.4425 13.8934 98.4425 12.8085C98.4425 12.0053 98.5885 11.255 98.8805 10.5575C99.1725 9.85997 99.5793 9.24703 100.101 8.71863C100.622 8.18318 101.227 7.7675 101.916 7.4716C102.604 7.17569 103.341 7.02774 104.127 7.02774C105.239 7.02774 106.212 7.26024 107.047 7.72523C107.888 8.19022 108.542 8.8384 109.008 9.66975C109.48 10.5011 109.717 11.4663 109.717 12.5654C109.717 12.657 109.713 12.731 109.706 12.7873C109.699 12.8437 109.686 12.9177 109.665 13.0092H100.487C100.487 13.7631 100.654 14.4289 100.987 15.0066C101.328 15.5843 101.794 16.0387 102.385 16.3699C102.983 16.694 103.668 16.856 104.439 16.856C105.17 16.856 105.823 16.7045 106.4 16.4016C106.977 16.0986 107.478 15.6477 107.902 15.0489L109.383 15.8309C108.876 16.6834 108.177 17.3457 107.287 17.8177C106.404 18.2897 105.42 18.5258 104.335 18.5258ZM100.591 11.498H107.683C107.586 10.9414 107.37 10.4553 107.036 10.0396C106.71 9.61691 106.296 9.2893 105.795 9.0568C105.302 8.81726 104.756 8.69749 104.158 8.69749C103.532 8.69749 102.965 8.81374 102.458 9.04623C101.957 9.27169 101.544 9.59577 101.217 10.0185C100.897 10.4342 100.688 10.9273 100.591 11.498Z" fill="#212529"/>
<path d="M113.048 18.1876V7.36592H115.071V8.95112C115.426 8.32409 115.877 7.84852 116.427 7.52444C116.976 7.19331 117.598 7.02774 118.294 7.02774C118.627 7.02774 118.965 7.07001 119.305 7.15456C119.653 7.23206 119.952 7.33774 120.202 7.4716L119.368 9.20476C119.152 9.08498 118.902 8.98987 118.617 8.91942C118.332 8.84897 118.064 8.81374 117.814 8.81374C117.348 8.81374 116.903 8.93703 116.479 9.18362C116.062 9.42316 115.721 9.73668 115.457 10.1242C115.2 10.5117 115.071 10.9273 115.071 11.3712V18.1876H113.048Z" fill="#212529"/>
<path d="M127.618 18.5258C126.499 18.5258 125.494 18.2756 124.604 17.7754C123.714 17.2752 123.012 16.5953 122.497 15.7358C121.983 14.8692 121.726 13.8934 121.726 12.8085C121.726 12.0053 121.872 11.255 122.164 10.5575C122.456 9.85997 122.862 9.24703 123.384 8.71863C123.905 8.18318 124.51 7.7675 125.199 7.4716C125.887 7.17569 126.624 7.02774 127.41 7.02774C128.522 7.02774 129.496 7.26024 130.33 7.72523C131.171 8.19022 131.825 8.8384 132.291 9.66975C132.764 10.5011 133 11.4663 133 12.5654C133 12.657 132.997 12.731 132.99 12.7873C132.983 12.8437 132.969 12.9177 132.948 13.0092H123.77C123.77 13.7631 123.937 14.4289 124.27 15.0066C124.611 15.5843 125.077 16.0387 125.668 16.3699C126.266 16.694 126.951 16.856 127.723 16.856C128.453 16.856 129.106 16.7045 129.683 16.4016C130.26 16.0986 130.761 15.6477 131.185 15.0489L132.666 15.8309C132.159 16.6834 131.46 17.3457 130.57 17.8177C129.687 18.2897 128.703 18.5258 127.618 18.5258ZM123.874 11.498H130.966C130.869 10.9414 130.653 10.4553 130.32 10.0396C129.993 9.61691 129.579 9.2893 129.078 9.0568C128.585 8.81726 128.039 8.69749 127.441 8.69749C126.815 8.69749 126.249 8.81374 125.741 9.04623C125.24 9.27169 124.827 9.59577 124.5 10.0185C124.18 10.4342 123.971 10.9273 123.874 11.498Z" fill="#212529"/>
</svg>
