<svg width="377" height="33" viewBox="0 0 377 33" fill="none" xmlns="http://www.w3.org/2000/svg">
<path d="M367.749 32.2001C365.817 32.2001 364.193 31.8454 362.877 31.1361C361.561 30.4361 360.604 29.4001 360.007 28.0281L363.507 26.3201C363.899 26.9827 364.477 27.5101 365.243 27.9021C366.008 28.2941 366.839 28.4901 367.735 28.4901C368.547 28.4901 369.261 28.3267 369.877 28.0001C370.493 27.6827 370.973 27.2301 371.319 26.6421C371.664 26.0634 371.837 25.3914 371.837 24.6261V22.6101C371.202 23.3474 370.451 23.9214 369.583 24.3321C368.715 24.7427 367.781 24.9481 366.783 24.9481C365.485 24.9481 364.3 24.6261 363.227 23.9821C362.163 23.3287 361.313 22.4281 360.679 21.2801C360.044 20.1321 359.727 18.8161 359.727 17.3321C359.727 15.8761 360.035 14.5787 360.651 13.4401C361.276 12.2921 362.125 11.3867 363.199 10.7241C364.281 10.0521 365.513 9.71606 366.895 9.71606C367.903 9.71606 368.836 9.91206 369.695 10.3041C370.553 10.6867 371.267 11.2234 371.837 11.9141V10.1641H376.135V24.8921C376.135 26.3014 375.827 27.5567 375.211 28.6581C374.604 29.7594 373.68 30.6227 372.439 31.2481C371.197 31.8827 369.634 32.2001 367.749 32.2001ZM368.071 21.2941C368.827 21.2941 369.494 21.1261 370.073 20.7901C370.661 20.4447 371.118 19.9781 371.445 19.3901C371.771 18.7927 371.935 18.1161 371.935 17.3601C371.935 16.5854 371.767 15.8994 371.431 15.3021C371.104 14.7047 370.651 14.2334 370.073 13.8881C369.494 13.5427 368.836 13.3701 368.099 13.3701C367.361 13.3701 366.703 13.5427 366.125 13.8881C365.546 14.2334 365.089 14.7094 364.753 15.3161C364.417 15.9134 364.249 16.5947 364.249 17.3601C364.249 18.1161 364.412 18.7927 364.739 19.3901C365.065 19.9781 365.518 20.4447 366.097 20.7901C366.675 21.1261 367.333 21.2941 368.071 21.2941Z" fill="currentColor"/>
<path d="M341.378 24.5001V10.1641H345.676V11.7601C346.226 11.1441 346.912 10.6494 347.734 10.2761C348.564 9.90273 349.479 9.71606 350.478 9.71606C351.579 9.71606 352.545 9.95873 353.376 10.4441C354.216 10.9201 354.874 11.5874 355.35 12.4461C355.826 13.2954 356.064 14.2894 356.064 15.4281V24.5001H351.766V16.3381C351.766 15.3114 351.495 14.5134 350.954 13.9441C350.422 13.3654 349.689 13.0761 348.756 13.0761C348.121 13.0761 347.57 13.2067 347.104 13.4681C346.646 13.7201 346.292 14.0701 346.04 14.5181C345.797 14.9567 345.676 15.4561 345.676 16.0161V24.5001H341.378Z" fill="currentColor"/>
<path d="M332.012 24.4999V10.1639H336.31V24.4999H332.012ZM334.168 7.18194C333.702 7.18194 333.272 7.06994 332.88 6.84594C332.498 6.61261 332.19 6.29994 331.956 5.90794C331.723 5.51594 331.606 5.0866 331.606 4.61994C331.606 4.15327 331.723 3.7286 331.956 3.34594C332.19 2.96327 332.498 2.65994 332.88 2.43594C333.272 2.2026 333.702 2.08594 334.168 2.08594C334.635 2.08594 335.06 2.2026 335.442 2.43594C335.825 2.65994 336.128 2.96327 336.352 3.34594C336.586 3.7286 336.702 4.15327 336.702 4.61994C336.702 5.0866 336.586 5.51594 336.352 5.90794C336.128 6.29994 335.825 6.61261 335.442 6.84594C335.06 7.06994 334.635 7.18194 334.168 7.18194Z" fill="currentColor"/>
<path d="M324.91 24.9481C323.482 24.9481 322.371 24.4954 321.578 23.5901C320.784 22.6754 320.388 21.4014 320.388 19.7681V13.4261H318.47V10.1641H320.388V4.78809H324.686V10.1641H327.836V13.4261H324.686V19.4601C324.686 20.0014 324.793 20.4121 325.008 20.6921C325.232 20.9721 325.544 21.1121 325.946 21.1121C326.394 21.1121 326.823 20.9628 327.234 20.6641L328.312 24.1081C327.826 24.3694 327.28 24.5748 326.674 24.7241C326.076 24.8734 325.488 24.9481 324.91 24.9481Z" fill="currentColor"/>
<path d="M310.616 24.4999V0.419922H314.914V24.4999H310.616Z" fill="currentColor"/>
<path d="M298.503 24.9481C295.89 24.9481 294.005 24.4301 292.847 23.3941C291.69 22.3581 291.111 20.6641 291.111 18.3121V10.1641H295.409V17.3041C295.409 18.8161 295.643 19.8847 296.109 20.5101C296.585 21.1354 297.383 21.4481 298.503 21.4481C299.642 21.4481 300.44 21.1354 300.897 20.5101C301.364 19.8847 301.597 18.8161 301.597 17.3041V10.1641H305.895V18.3121C305.895 20.6641 305.317 22.3581 304.159 23.3941C303.011 24.4301 301.126 24.9481 298.503 24.9481Z" fill="currentColor"/>
<path d="M281.207 24.9479C279.994 24.9479 278.907 24.7566 277.945 24.3739C276.993 23.9912 276.2 23.4312 275.565 22.6939L277.371 19.8099C277.969 20.4446 278.594 20.9299 279.247 21.2659C279.901 21.6019 280.554 21.7699 281.207 21.7699C281.571 21.7699 281.884 21.7092 282.145 21.5879C282.416 21.4666 282.626 21.2939 282.775 21.0699C282.934 20.8366 283.013 20.5566 283.013 20.2299C283.013 19.8566 282.906 19.5626 282.691 19.3479C282.486 19.1332 282.169 18.9372 281.739 18.7599C281.31 18.5732 280.755 18.3399 280.073 18.0599C279.495 17.8172 278.939 17.5419 278.407 17.2339C277.875 16.9259 277.441 16.5339 277.105 16.0579C276.779 15.5819 276.615 14.9799 276.615 14.2519C276.615 13.3652 276.863 12.5859 277.357 11.9139C277.852 11.2326 278.533 10.7006 279.401 10.3179C280.279 9.93523 281.287 9.7439 282.425 9.7439C283.135 9.7439 283.877 9.85123 284.651 10.0659C285.435 10.2806 286.271 10.6072 287.157 11.0459L285.687 13.8039C284.483 13.0292 283.405 12.6419 282.453 12.6419C281.921 12.6419 281.497 12.7586 281.179 12.9919C280.862 13.2252 280.703 13.5192 280.703 13.8739C280.703 14.2099 280.867 14.5039 281.193 14.7559C281.529 14.9986 281.935 15.2179 282.411 15.4139C282.897 15.6006 283.359 15.7732 283.797 15.9319C284.516 16.1932 285.151 16.4826 285.701 16.7999C286.261 17.1172 286.7 17.5326 287.017 18.0459C287.335 18.5499 287.493 19.2266 287.493 20.0759C287.493 21.1119 287.241 21.9939 286.737 22.7219C286.243 23.4406 285.524 23.9912 284.581 24.3739C283.648 24.7566 282.523 24.9479 281.207 24.9479Z" fill="currentColor"/>
<path d="M257.815 24.5001V10.1641H262.113V11.7601C262.664 11.1441 263.35 10.6494 264.171 10.2761C265.002 9.90273 265.917 9.71606 266.915 9.71606C268.017 9.71606 268.983 9.95873 269.813 10.4441C270.653 10.9201 271.311 11.5874 271.787 12.4461C272.263 13.2954 272.501 14.2894 272.501 15.4281V24.5001H268.203V16.3381C268.203 15.3114 267.933 14.5134 267.391 13.9441C266.859 13.3654 266.127 13.0761 265.193 13.0761C264.559 13.0761 264.008 13.2067 263.541 13.4681C263.084 13.7201 262.729 14.0701 262.477 14.5181C262.235 14.9567 262.113 15.4561 262.113 16.0161V24.5001H257.815Z" fill="currentColor"/>
<path d="M245.651 24.9481C244.073 24.9481 242.65 24.6261 241.381 23.9821C240.111 23.3287 239.103 22.4327 238.357 21.2941C237.61 20.1461 237.237 18.8254 237.237 17.3321C237.237 15.8387 237.605 14.5227 238.343 13.3841C239.089 12.2361 240.097 11.3401 241.367 10.6961C242.645 10.0427 244.073 9.71606 245.651 9.71606C247.237 9.71606 248.665 10.0427 249.935 10.6961C251.204 11.3401 252.207 12.2361 252.945 13.3841C253.691 14.5227 254.065 15.8387 254.065 17.3321C254.065 18.8254 253.691 20.1461 252.945 21.2941C252.207 22.4327 251.204 23.3287 249.935 23.9821C248.665 24.6261 247.237 24.9481 245.651 24.9481ZM245.665 21.2801C246.393 21.2801 247.055 21.1121 247.653 20.7761C248.25 20.4401 248.721 19.9781 249.067 19.3901C249.412 18.7927 249.585 18.1067 249.585 17.3321C249.585 16.5574 249.412 15.8761 249.067 15.2881C248.721 14.6907 248.25 14.2241 247.653 13.8881C247.055 13.5521 246.393 13.3841 245.665 13.3841C244.927 13.3841 244.26 13.5521 243.663 13.8881C243.075 14.2241 242.608 14.6907 242.263 15.2881C241.917 15.8761 241.745 16.5574 241.745 17.3321C241.745 18.1067 241.917 18.7927 242.263 19.3901C242.608 19.9781 243.075 20.4401 243.663 20.7761C244.26 21.1121 244.927 21.2801 245.665 21.2801Z" fill="currentColor"/>
<path d="M228.118 24.948C226.373 24.948 224.735 24.64 223.204 24.024C221.674 23.408 220.325 22.554 219.158 21.462C217.992 20.3606 217.082 19.0866 216.428 17.64C215.775 16.1933 215.448 14.6393 215.448 12.978C215.448 11.3073 215.775 9.74865 216.428 8.30198C217.091 6.84598 218.001 5.57198 219.158 4.47998C220.325 3.37865 221.669 2.51998 223.19 1.90398C224.721 1.28798 226.354 0.97998 228.09 0.97998C229.509 0.97998 230.858 1.18065 232.136 1.58198C233.424 1.98331 234.526 2.51065 235.44 3.16398L233.48 7.01398C232.855 6.51931 232.094 6.13198 231.198 5.85198C230.302 5.57198 229.364 5.43198 228.384 5.43198C227.236 5.43198 226.172 5.62331 225.192 6.00598C224.222 6.38865 223.372 6.92065 222.644 7.60198C221.926 8.28331 221.366 9.08131 220.964 9.99598C220.563 10.9106 220.362 11.9 220.362 12.964C220.362 14.028 220.563 15.0173 220.964 15.932C221.366 16.8466 221.926 17.6446 222.644 18.326C223.372 19.0073 224.222 19.5393 225.192 19.922C226.172 20.3046 227.236 20.496 228.384 20.496C229.364 20.496 230.302 20.356 231.198 20.076C232.094 19.796 232.855 19.4086 233.48 18.914L235.44 22.764C234.563 23.3986 233.485 23.9213 232.206 24.332C230.928 24.7426 229.565 24.948 228.118 24.948Z" fill="currentColor"/>
<path d="M202.437 24.9481C201.009 24.9481 199.898 24.4954 199.105 23.5901C198.312 22.6754 197.915 21.4014 197.915 19.7681V13.4261H195.997V10.1641H197.915V4.78809H202.213V10.1641H205.363V13.4261H202.213V19.4601C202.213 20.0014 202.32 20.4121 202.535 20.6921C202.759 20.9721 203.072 21.1121 203.473 21.1121C203.921 21.1121 204.35 20.9628 204.761 20.6641L205.839 24.1081C205.354 24.3694 204.808 24.5748 204.201 24.7241C203.604 24.8734 203.016 24.9481 202.437 24.9481Z" fill="currentColor"/>
<path d="M178.19 24.5001V10.1641H182.488V11.7601C183.039 11.1441 183.725 10.6494 184.546 10.2761C185.377 9.90273 186.292 9.71606 187.29 9.71606C188.392 9.71606 189.358 9.95873 190.188 10.4441C191.028 10.9201 191.686 11.5874 192.162 12.4461C192.638 13.2954 192.876 14.2894 192.876 15.4281V24.5001H188.578V16.3381C188.578 15.3114 188.308 14.5134 187.766 13.9441C187.234 13.3654 186.502 13.0761 185.568 13.0761C184.934 13.0761 184.383 13.2067 183.916 13.4681C183.459 13.7201 183.104 14.0701 182.852 14.5181C182.61 14.9567 182.488 15.4561 182.488 16.0161V24.5001H178.19Z" fill="currentColor"/>
<path d="M167.059 24.9481C165.509 24.9481 164.119 24.6167 162.887 23.9541C161.664 23.2821 160.693 22.3721 159.975 21.2241C159.256 20.0761 158.897 18.7787 158.897 17.3321C158.897 16.2681 159.097 15.2741 159.499 14.3501C159.909 13.4261 160.479 12.6187 161.207 11.9281C161.935 11.2281 162.779 10.6867 163.741 10.3041C164.702 9.91206 165.743 9.71606 166.863 9.71606C168.356 9.71606 169.663 10.0287 170.783 10.6541C171.912 11.2701 172.789 12.1287 173.415 13.2301C174.049 14.3314 174.367 15.6147 174.367 17.0801C174.367 17.2014 174.362 17.3087 174.353 17.4021C174.353 17.4861 174.339 17.6494 174.311 17.8921H163.321C163.321 18.6201 163.484 19.2547 163.811 19.7961C164.147 20.3374 164.613 20.7621 165.211 21.0701C165.808 21.3687 166.503 21.5181 167.297 21.5181C168.043 21.5181 168.701 21.3734 169.271 21.0841C169.849 20.7947 170.405 20.3327 170.937 19.6981L174.031 21.2521C173.359 22.4094 172.407 23.3147 171.175 23.9681C169.943 24.6214 168.571 24.9481 167.059 24.9481ZM163.475 15.5121H170.139C170.045 14.9614 169.845 14.4854 169.537 14.0841C169.238 13.6827 168.855 13.3747 168.389 13.1601C167.922 12.9454 167.395 12.8381 166.807 12.8381C166.181 12.8381 165.631 12.9454 165.155 13.1601C164.679 13.3747 164.296 13.6827 164.007 14.0841C163.717 14.4854 163.54 14.9614 163.475 15.5121Z" fill="currentColor"/>
<path d="M146.28 24.5001V10.1641H150.578V12.2221C151.11 11.4194 151.759 10.8034 152.524 10.3741C153.299 9.9354 154.129 9.71606 155.016 9.71606C155.52 9.71606 156.043 9.79073 156.584 9.94006C157.125 10.0894 157.578 10.2807 157.942 10.5141L156.15 14.1401C155.833 13.9254 155.459 13.7574 155.03 13.6361C154.61 13.5054 154.218 13.4401 153.854 13.4401C153.294 13.4401 152.762 13.5847 152.258 13.8741C151.754 14.1634 151.348 14.5414 151.04 15.0081C150.732 15.4654 150.578 15.9601 150.578 16.4921V24.5001H146.28Z" fill="currentColor"/>
<path d="M134.168 24.9481C131.554 24.9481 129.669 24.4301 128.512 23.3941C127.354 22.3581 126.776 20.6641 126.776 18.3121V10.1641H131.074V17.3041C131.074 18.8161 131.307 19.8847 131.774 20.5101C132.25 21.1354 133.048 21.4481 134.168 21.4481C135.306 21.4481 136.104 21.1354 136.562 20.5101C137.028 19.8847 137.262 18.8161 137.262 17.3041V10.1641H141.56V18.3121C141.56 20.6641 140.981 22.3581 139.824 23.3941C138.676 24.4301 136.79 24.9481 134.168 24.9481Z" fill="currentColor"/>
<path d="M112.774 24.9481C111.458 24.9481 110.258 24.6214 109.176 23.9681C108.102 23.3054 107.248 22.4001 106.614 21.2521C105.988 20.0947 105.676 18.7787 105.676 17.3041C105.676 15.8667 105.979 14.5787 106.586 13.4401C107.192 12.2921 108.028 11.3867 109.092 10.7241C110.165 10.0521 111.392 9.71606 112.774 9.71606C113.791 9.71606 114.738 9.91206 115.616 10.3041C116.502 10.6867 117.226 11.2234 117.786 11.9141V10.1641H122.084V24.5001H117.786V22.6101C117.132 23.3661 116.381 23.9447 115.532 24.3461C114.682 24.7474 113.763 24.9481 112.774 24.9481ZM114.048 21.2941C114.794 21.2941 115.457 21.1261 116.036 20.7901C116.614 20.4447 117.067 19.9734 117.394 19.3761C117.72 18.7787 117.884 18.0974 117.884 17.3321C117.884 16.5574 117.716 15.8761 117.38 15.2881C117.053 14.6907 116.6 14.2241 116.022 13.8881C115.452 13.5427 114.794 13.3701 114.048 13.3701C113.31 13.3701 112.652 13.5427 112.074 13.8881C111.495 14.2241 111.038 14.6907 110.702 15.2881C110.366 15.8854 110.198 16.5667 110.198 17.3321C110.198 18.0974 110.361 18.7787 110.688 19.3761C111.024 19.9734 111.481 20.4447 112.06 20.7901C112.638 21.1261 113.301 21.2941 114.048 21.2941Z" fill="currentColor"/>
<path d="M90.8414 24.4999V1.3999H95.3774V20.5239H103.721V24.4999H90.8414Z" fill="currentColor"/>
<path d="M75.5619 24.9481C74.1339 24.9481 73.0233 24.4954 72.2299 23.5901C71.4366 22.6754 71.0399 21.4014 71.0399 19.7681V13.4261H69.1219V10.1641H71.0399V4.78809H75.3379V10.1641H78.4879V13.4261H75.3379V19.4601C75.3379 20.0014 75.4453 20.4121 75.6599 20.6921C75.8839 20.9721 76.1966 21.1121 76.5979 21.1121C77.0459 21.1121 77.4753 20.9628 77.8859 20.6641L78.9639 24.1081C78.4786 24.3694 77.9326 24.5748 77.3259 24.7241C76.7286 24.8734 76.1406 24.9481 75.5619 24.9481Z" fill="currentColor"/>
<path d="M51.3153 24.5001V10.1641H55.6133V11.7601C56.164 11.1441 56.85 10.6494 57.6713 10.2761C58.502 9.90273 59.4166 9.71606 60.4153 9.71606C61.5166 9.71606 62.4826 9.95873 63.3133 10.4441C64.1533 10.9201 64.8113 11.5874 65.2873 12.4461C65.7633 13.2954 66.0013 14.2894 66.0013 15.4281V24.5001H61.7033V16.3381C61.7033 15.3114 61.4326 14.5134 60.8913 13.9441C60.3593 13.3654 59.6266 13.0761 58.6933 13.0761C58.0586 13.0761 57.508 13.2067 57.0413 13.4681C56.584 13.7201 56.2293 14.0701 55.9773 14.5181C55.7346 14.9567 55.6133 15.4561 55.6133 16.0161V24.5001H51.3153Z" fill="currentColor"/>
<path d="M41.9497 24.4999V10.1639H46.2477V24.4999H41.9497ZM44.1057 7.18194C43.639 7.18194 43.2097 7.06994 42.8177 6.84594C42.435 6.61261 42.127 6.29994 41.8937 5.90794C41.6604 5.51594 41.5437 5.0866 41.5437 4.61994C41.5437 4.15327 41.6604 3.7286 41.8937 3.34594C42.127 2.96327 42.435 2.65994 42.8177 2.43594C43.2097 2.2026 43.639 2.08594 44.1057 2.08594C44.5724 2.08594 44.997 2.2026 45.3797 2.43594C45.7624 2.65994 46.0657 2.96327 46.2897 3.34594C46.523 3.7286 46.6397 4.15327 46.6397 4.61994C46.6397 5.0866 46.523 5.51594 46.2897 5.90794C46.0657 6.29994 45.7624 6.61261 45.3797 6.84594C44.997 7.06994 44.5724 7.18194 44.1057 7.18194Z" fill="currentColor"/>
<path d="M27.5979 24.9481C26.2819 24.9481 25.0825 24.6214 23.9999 23.9681C22.9265 23.3054 22.0725 22.4001 21.4379 21.2521C20.8125 20.0947 20.4999 18.7787 20.4999 17.3041C20.4999 15.8667 20.8032 14.5787 21.4099 13.4401C22.0165 12.2921 22.8519 11.3867 23.9159 10.7241C24.9892 10.0521 26.2165 9.71606 27.5979 9.71606C28.6152 9.71606 29.5625 9.91206 30.4399 10.3041C31.3265 10.6867 32.0499 11.2234 32.6099 11.9141V10.1641H36.9079V24.5001H32.6099V22.6101C31.9565 23.3661 31.2052 23.9447 30.3559 24.3461C29.5065 24.7474 28.5872 24.9481 27.5979 24.9481ZM28.8719 21.2941C29.6185 21.2941 30.2812 21.1261 30.8599 20.7901C31.4385 20.4447 31.8912 19.9734 32.2179 19.3761C32.5445 18.7787 32.7079 18.0974 32.7079 17.3321C32.7079 16.5574 32.5399 15.8761 32.2039 15.2881C31.8772 14.6907 31.4245 14.2241 30.8459 13.8881C30.2765 13.5427 29.6185 13.3701 28.8719 13.3701C28.1345 13.3701 27.4765 13.5427 26.8979 13.8881C26.3192 14.2241 25.8619 14.6907 25.5259 15.2881C25.1899 15.8854 25.0219 16.5667 25.0219 17.3321C25.0219 18.0974 25.1852 18.7787 25.5119 19.3761C25.8479 19.9734 26.3052 20.4447 26.8839 20.7901C27.4625 21.1261 28.1252 21.2941 28.8719 21.2941Z" fill="currentColor"/>
<path d="M9.16999 24.948C8.09666 24.948 7.10732 24.8266 6.20199 24.584C5.29666 24.3506 4.48466 24.0566 3.76599 23.702C3.05666 23.338 2.44532 22.9646 1.93199 22.582C1.41866 22.1993 1.01266 21.8633 0.713989 21.574L3.03799 17.822C3.34599 18.0926 3.71466 18.396 4.14399 18.732C4.57332 19.068 5.05399 19.39 5.58599 19.698C6.11799 19.9966 6.69199 20.2486 7.30799 20.454C7.93332 20.65 8.59599 20.748 9.29599 20.748C9.94932 20.748 10.5233 20.6453 11.018 20.44C11.522 20.2346 11.9187 19.9313 12.208 19.53C12.4973 19.1193 12.642 18.6106 12.642 18.004C12.642 17.4533 12.5253 16.9866 12.292 16.604C12.0587 16.212 11.7133 15.862 11.256 15.554C10.808 15.2366 10.2527 14.9286 9.58999 14.63C8.93666 14.322 8.18999 13.986 7.34999 13.622C6.72466 13.342 6.12732 13.0246 5.55799 12.67C4.99799 12.306 4.49866 11.886 4.05999 11.41C3.62132 10.934 3.27132 10.3973 3.00999 9.79998C2.75799 9.19331 2.63199 8.51665 2.63199 7.76998C2.63199 6.88331 2.80932 6.03398 3.16399 5.22198C3.51866 4.40998 4.02266 3.68665 4.67599 3.05198C5.33866 2.41731 6.12266 1.91331 7.02799 1.53998C7.94266 1.16665 8.95999 0.97998 10.08 0.97998C10.92 0.97998 11.76 1.09198 12.6 1.31598C13.44 1.53998 14.224 1.83398 14.952 2.19798C15.68 2.56198 16.296 2.95865 16.8 3.38798L14.91 6.94398C14.5087 6.59865 14.0513 6.29065 13.538 6.01998C13.034 5.73998 12.4927 5.51598 11.914 5.34798C11.3447 5.17998 10.766 5.09598 10.178 5.09598C9.51532 5.09598 8.95066 5.21265 8.48399 5.44598C8.02666 5.67931 7.67199 5.99198 7.41999 6.38398C7.17732 6.76665 7.05599 7.19598 7.05599 7.67198C7.05599 8.06398 7.13532 8.39998 7.29399 8.67998C7.46199 8.95065 7.69532 9.18865 7.99399 9.39398C8.29266 9.58998 8.65199 9.78131 9.07199 9.96798C9.49199 10.1453 9.95399 10.3366 10.458 10.542C11.5407 10.9993 12.5207 11.452 13.398 11.9C14.2753 12.348 15.0267 12.8473 15.652 13.398C16.2773 13.9393 16.7533 14.574 17.08 15.302C17.416 16.03 17.584 16.898 17.584 17.906C17.584 19.3806 17.2293 20.6453 16.52 21.7C15.82 22.7546 14.84 23.562 13.58 24.122C12.32 24.6726 10.85 24.948 9.16999 24.948Z" fill="currentColor"/>
</svg>
